<mxfile host="Electron" agent="Mozilla/5.0 (Windows NT 10.0; Win64; x64) AppleWebKit/537.36 (KHTML, like Gecko) draw.io/24.7.17 Chrome/128.0.6613.36 Electron/32.0.1 Safari/537.36" version="24.7.17">
  <diagram name="Pagina-1" id="phayMil7VGXQJ-1ZW423">
    <mxGraphModel dx="676" dy="391" grid="1" gridSize="10" guides="1" tooltips="1" connect="1" arrows="1" fold="1" page="1" pageScale="1" pageWidth="827" pageHeight="1169" math="1" shadow="0">
      <root>
        <mxCell id="0" />
        <mxCell id="1" parent="0" />
        <mxCell id="dqKIEMOzq19Dz_47ookS-36" value="" style="group" vertex="1" connectable="0" parent="1">
          <mxGeometry x="260" y="270" width="320" height="270" as="geometry" />
        </mxCell>
        <mxCell id="dqKIEMOzq19Dz_47ookS-19" value="" style="ellipse;whiteSpace=wrap;html=1;fillColor=none;dashed=1;dashPattern=12 12;strokeColor=#FF03E6;" vertex="1" parent="dqKIEMOzq19Dz_47ookS-36">
          <mxGeometry width="320" height="270" as="geometry" />
        </mxCell>
        <mxCell id="dqKIEMOzq19Dz_47ookS-20" style="edgeStyle=orthogonalEdgeStyle;rounded=1;orthogonalLoop=1;jettySize=auto;html=1;entryX=0.5;entryY=0;entryDx=0;entryDy=0;curved=0;endArrow=none;endFill=0;" edge="1" parent="dqKIEMOzq19Dz_47ookS-36" source="dqKIEMOzq19Dz_47ookS-23" target="dqKIEMOzq19Dz_47ookS-25">
          <mxGeometry relative="1" as="geometry" />
        </mxCell>
        <mxCell id="dqKIEMOzq19Dz_47ookS-21" style="edgeStyle=orthogonalEdgeStyle;rounded=1;orthogonalLoop=1;jettySize=auto;html=1;entryX=0.5;entryY=0;entryDx=0;entryDy=0;curved=0;endArrow=none;endFill=0;" edge="1" parent="dqKIEMOzq19Dz_47ookS-36" source="dqKIEMOzq19Dz_47ookS-23" target="dqKIEMOzq19Dz_47ookS-26">
          <mxGeometry relative="1" as="geometry">
            <Array as="points">
              <mxPoint x="120" y="70" />
            </Array>
          </mxGeometry>
        </mxCell>
        <mxCell id="dqKIEMOzq19Dz_47ookS-22" style="edgeStyle=orthogonalEdgeStyle;rounded=0;orthogonalLoop=1;jettySize=auto;html=1;entryX=0.5;entryY=0;entryDx=0;entryDy=0;curved=1;endArrow=none;endFill=0;exitX=1;exitY=0;exitDx=0;exitDy=0;" edge="1" parent="dqKIEMOzq19Dz_47ookS-36" source="dqKIEMOzq19Dz_47ookS-23" target="dqKIEMOzq19Dz_47ookS-29">
          <mxGeometry relative="1" as="geometry" />
        </mxCell>
        <mxCell id="dqKIEMOzq19Dz_47ookS-23" value="" style="ellipse;whiteSpace=wrap;html=1;aspect=fixed;fillColor=#dae8fc;strokeColor=#6c8ebf;" vertex="1" parent="dqKIEMOzq19Dz_47ookS-36">
          <mxGeometry x="60" y="50" width="40" height="40" as="geometry" />
        </mxCell>
        <mxCell id="dqKIEMOzq19Dz_47ookS-24" style="edgeStyle=orthogonalEdgeStyle;rounded=1;orthogonalLoop=1;jettySize=auto;html=1;entryX=0;entryY=0.5;entryDx=0;entryDy=0;curved=0;endArrow=none;endFill=0;" edge="1" parent="dqKIEMOzq19Dz_47ookS-36" source="dqKIEMOzq19Dz_47ookS-25" target="dqKIEMOzq19Dz_47ookS-28">
          <mxGeometry relative="1" as="geometry" />
        </mxCell>
        <mxCell id="dqKIEMOzq19Dz_47ookS-25" value="" style="ellipse;whiteSpace=wrap;html=1;aspect=fixed;fillColor=#ffe6cc;strokeColor=#d79b00;" vertex="1" parent="dqKIEMOzq19Dz_47ookS-36">
          <mxGeometry x="60" y="130" width="40" height="40" as="geometry" />
        </mxCell>
        <mxCell id="dqKIEMOzq19Dz_47ookS-26" value="" style="ellipse;whiteSpace=wrap;html=1;aspect=fixed;fillColor=#d5e8d4;strokeColor=#82b366;" vertex="1" parent="dqKIEMOzq19Dz_47ookS-36">
          <mxGeometry x="100" y="90" width="40" height="40" as="geometry" />
        </mxCell>
        <mxCell id="dqKIEMOzq19Dz_47ookS-27" style="edgeStyle=orthogonalEdgeStyle;rounded=0;orthogonalLoop=1;jettySize=auto;html=1;entryX=0.5;entryY=1;entryDx=0;entryDy=0;curved=1;endArrow=none;endFill=0;" edge="1" parent="dqKIEMOzq19Dz_47ookS-36" source="dqKIEMOzq19Dz_47ookS-28" target="dqKIEMOzq19Dz_47ookS-29">
          <mxGeometry relative="1" as="geometry" />
        </mxCell>
        <mxCell id="dqKIEMOzq19Dz_47ookS-28" value="" style="ellipse;whiteSpace=wrap;html=1;aspect=fixed;fillColor=#e1d5e7;strokeColor=#9673a6;" vertex="1" parent="dqKIEMOzq19Dz_47ookS-36">
          <mxGeometry x="100" y="170" width="40" height="40" as="geometry" />
        </mxCell>
        <mxCell id="dqKIEMOzq19Dz_47ookS-29" value="" style="ellipse;whiteSpace=wrap;html=1;aspect=fixed;fillColor=#f8cecc;strokeColor=#b85450;" vertex="1" parent="dqKIEMOzq19Dz_47ookS-36">
          <mxGeometry x="260" y="110" width="40" height="40" as="geometry" />
        </mxCell>
        <mxCell id="dqKIEMOzq19Dz_47ookS-30" value="" style="endArrow=none;html=1;rounded=0;exitX=1;exitY=0.5;exitDx=0;exitDy=0;entryX=0;entryY=0;entryDx=0;entryDy=0;curved=1;" edge="1" parent="dqKIEMOzq19Dz_47ookS-36" source="dqKIEMOzq19Dz_47ookS-26" target="dqKIEMOzq19Dz_47ookS-29">
          <mxGeometry width="50" height="50" relative="1" as="geometry">
            <mxPoint x="220" y="150" as="sourcePoint" />
            <mxPoint x="270" y="100" as="targetPoint" />
            <Array as="points">
              <mxPoint x="200" y="90" />
            </Array>
          </mxGeometry>
        </mxCell>
        <mxCell id="dqKIEMOzq19Dz_47ookS-31" value="" style="endArrow=none;html=1;rounded=0;exitX=1;exitY=0.5;exitDx=0;exitDy=0;entryX=0;entryY=1;entryDx=0;entryDy=0;curved=1;" edge="1" parent="dqKIEMOzq19Dz_47ookS-36" source="dqKIEMOzq19Dz_47ookS-25" target="dqKIEMOzq19Dz_47ookS-29">
          <mxGeometry width="50" height="50" relative="1" as="geometry">
            <mxPoint x="144" y="106" as="sourcePoint" />
            <mxPoint x="276" y="126" as="targetPoint" />
            <Array as="points">
              <mxPoint x="210" y="150" />
            </Array>
          </mxGeometry>
        </mxCell>
        <mxCell id="dqKIEMOzq19Dz_47ookS-32" value="" style="ellipse;whiteSpace=wrap;html=1;fillColor=none;dashed=1;dashPattern=12 12;strokeColor=#00C0DE;" vertex="1" parent="dqKIEMOzq19Dz_47ookS-36">
          <mxGeometry x="20" y="35" width="160" height="195" as="geometry" />
        </mxCell>
        <mxCell id="dqKIEMOzq19Dz_47ookS-33" value="&lt;svg style=&quot;vertical-align: -0.05ex; font-size: 22px;&quot; xmlns:xlink=&quot;http://www.w3.org/1999/xlink&quot; viewBox=&quot;0 -705 786 727&quot; role=&quot;img&quot; height=&quot;1.645ex&quot; width=&quot;1.778ex&quot; xmlns=&quot;http://www.w3.org/2000/svg&quot;&gt;&lt;defs style=&quot;font-size: 22px;&quot;&gt;&lt;path style=&quot;font-size: 22px;&quot; d=&quot;M50 252Q50 367 117 473T286 641T490 704Q580 704 633 653Q642 643 648 636T656 626L657 623Q660 623 684 649Q691 655 699 663T715 679T725 690L740 705H746Q760 705 760 698Q760 694 728 561Q692 422 692 421Q690 416 687 415T669 413H653Q647 419 647 422Q647 423 648 429T650 449T651 481Q651 552 619 605T510 659Q492 659 471 656T418 643T357 615T294 567T236 496T189 394T158 260Q156 242 156 221Q156 173 170 136T206 79T256 45T308 28T353 24Q407 24 452 47T514 106Q517 114 529 161T541 214Q541 222 528 224T468 227H431Q425 233 425 235T427 254Q431 267 437 273H454Q494 271 594 271Q634 271 659 271T695 272T707 272Q721 272 721 263Q721 261 719 249Q714 230 709 228Q706 227 694 227Q674 227 653 224Q646 221 643 215T629 164Q620 131 614 108Q589 6 586 3Q584 1 581 1Q571 1 553 21T530 52Q530 53 528 52T522 47Q448 -22 322 -22Q201 -22 126 55T50 252Z&quot; id=&quot;MJX-1-TEX-I-1D43A&quot;&gt;&lt;/path&gt;&lt;/defs&gt;&lt;g style=&quot;font-size: 22px;&quot; transform=&quot;scale(1,-1)&quot; stroke-width=&quot;0&quot; fill=&quot;currentColor&quot; stroke=&quot;currentColor&quot;&gt;&lt;g style=&quot;font-size: 22px;&quot; data-mml-node=&quot;math&quot;&gt;&lt;g style=&quot;font-size: 22px;&quot; data-mml-node=&quot;mi&quot;&gt;&lt;use style=&quot;font-size: 22px;&quot; xlink:href=&quot;#MJX-1-TEX-I-1D43A&quot; data-c=&quot;1D43A&quot;&gt;&lt;/use&gt;&lt;/g&gt;&lt;/g&gt;&lt;/g&gt;&lt;/svg&gt;" style="text;html=1;align=center;verticalAlign=middle;whiteSpace=wrap;rounded=0;fontColor=#00C0DE;fontSize=22;" vertex="1" parent="dqKIEMOzq19Dz_47ookS-36">
          <mxGeometry x="130" y="10" width="60" height="40" as="geometry" />
        </mxCell>
        <mxCell id="dqKIEMOzq19Dz_47ookS-35" value="\(H\)" style="text;html=1;align=center;verticalAlign=middle;whiteSpace=wrap;rounded=0;fontSize=22;fontColor=#FF03E6;" vertex="1" parent="dqKIEMOzq19Dz_47ookS-36">
          <mxGeometry x="250" width="60" height="30" as="geometry" />
        </mxCell>
      </root>
    </mxGraphModel>
  </diagram>
</mxfile>
